<?xml version="1.0" standalone="no"?>
<!DOCTYPE svg PUBLIC "-//W3C//DTD SVG 20010904//EN"
 "http://www.w3.org/TR/2001/REC-SVG-20010904/DTD/svg10.dtd">
<svg version="1.0" xmlns="http://www.w3.org/2000/svg"
 width="225.000000pt" height="225.000000pt" viewBox="0 0 225.000000 225.000000"
 preserveAspectRatio="xMidYMid meet">
<metadata>
Created by potrace 1.14, written by Peter Selinger 2001-2017
</metadata>
<g transform="translate(0.000000,225.000000) scale(0.100000,-0.100000)"
fill="#000000" stroke="none">
<path d="M506 2024 c-120 -29 -248 -122 -308 -225 -57 -97 -72 -162 -71 -309
1 -150 21 -246 73 -357 67 -144 157 -240 535 -574 149 -131 297 -263 330 -292
l60 -55 60 55 c33 30 182 161 330 292 451 398 526 489 586 716 31 120 32 325
0 415 -31 89 -66 145 -127 205 -169 166 -442 192 -649 60 -59 -37 -137 -113
-173 -168 l-26 -39 -16 23 c-139 210 -374 309 -604 253z"/>
</g>
</svg>
